<svg xmlns="http://www.w3.org/2000/svg" xmlns:xlink="http://www.w3.org/1999/xlink" width="128" height="128" preserveAspectRatio="xMidYMid meet" viewBox="0 0 128 128" style="-ms-transform: rotate(360deg); -webkit-transform: rotate(360deg); transform: rotate(360deg);"><path d="M123.06 39.41L68.12 5.14a7.997 7.997 0 0 0-8.23 0L38.12 18.72a.98.98 0 0 0-.41.51L39 30.67L28.22 25c-.14.02-.28.07-.4.14L4.94 39.41c-.58.37-.94 1.01-.94 1.7V42c0 1.1.9 2 2 2h116c1.1 0 2-.9 2-2v-.89c0-.69-.36-1.33-.94-1.7z" fill="#553a30"/><radialGradient id="IconifyId-1790f3cb797-6a5f26-4644" cx="62.995" cy="113.667" r="116.95" gradientTransform="matrix(1 0 0 -1 0 128)" gradientUnits="userSpaceOnUse"><stop offset="0" stop-color="#cca88f"/><stop offset=".08" stop-color="#c3a089"/><stop offset=".328" stop-color="#ac8c78"/><stop offset=".561" stop-color="#9e806e"/><stop offset=".762" stop-color="#997c6b"/><stop offset=".845" stop-color="#917262"/><stop offset=".983" stop-color="#7c594b"/><stop offset="1" stop-color="#795548"/></radialGradient><path d="M68.19 14.58a8.018 8.018 0 0 0-8.39 0L41.19 26.5c.94 4.45 2.64 13.75 4.14 17.5c-3.67-3.17-8-8.67-11.22-12.97L14.25 43.75l2.08 39.92L11 120.25l103.25.75L113 79.25L116 44L68.19 14.58z" fill="url(#IconifyId-1790f3cb797-6a5f26-4644)"/><path d="M105.73 105.34h8.98c.74 0 1.35.6 1.35 1.35v3.55c0 .74-.6 1.35-1.35 1.35h-8.98c-.74 0-1.35-.6-1.35-1.35v-3.55c.01-.75.61-1.35 1.35-1.35z" fill="#6d4c41"/><path d="M108.89 63.64h6.67c.55 0 1 .45 1 1v2.64c0 .55-.45 1-1 1h-6.67c-.55 0-1-.45-1-1v-2.64c0-.55.45-1 1-1z" fill="#553a30"/><path d="M88.36 50.51h11.55c.96 0 1.73.51 1.73 1.14v3.02c0 .63-.77 1.14-1.73 1.14H88.36c-.96 0-1.73-.51-1.73-1.14v-3.02c0-.62.77-1.14 1.73-1.14z" fill="#6d4c41"/><path d="M93.36 40.39h12.35c1.02 0 1.85.65 1.85 1.46v3.85c0 .81-.83 1.46-1.85 1.46H93.36c-1.02 0-1.85-.65-1.85-1.46v-3.85c0-.81.83-1.46 1.85-1.46z" fill="#6d4c41"/><path d="M25.52 47.93h-7.86c-1.86 0-3.36.62-3.36 1.39V53c0 .77 1.51 1.39 3.36 1.39h7.86c1.86 0 3.36-.62 3.36-1.39v-3.67c0-.77-1.5-1.4-3.36-1.4z" fill="#6d4c41"/><path d="M39.55 103.47H29.22c-.85 0-1.55.64-1.55 1.43v3.78c0 .79.69 1.43 1.55 1.43h10.33c.85 0 1.55-.64 1.55-1.43v-3.78c0-.79-.7-1.43-1.55-1.43z" fill="#553a30"/><path fill="#6d4c41" d="M31.24 118.29h8.67v4.64h-8.67z"/><path d="M28.58 81.5h-5.55c-.55 0-1 .45-1 1v2.64c0 .55.45 1 1 1h5.55c.55 0 1-.45 1-1V82.5c0-.56-.45-1-1-1z" fill="#6d4c41"/><path fill="#6d4c41" d="M14.91 118.29h4.34v4.64h-4.34z"/><path d="M124 124H4v-4c0-2.21 1.79-4 4-4h112c2.21 0 4 1.79 4 4v4z" fill="#8bc34a"/><path d="M124 124H4v-4c0-2.21 1.79-4 4-4h112c2.21 0 4 1.79 4 4v4z" fill="#9e9d24"/><path d="M81.98 116h-36V64c0-2.21 1.79-4 4-4h28c2.21 0 4 1.79 4 4v52z" fill="#3e2723"/><path d="M77.98 63c.55 0 1 .45 1 1v49h-30V64c0-.55.45-1 1-1h28m0-3h-28c-2.21 0-4 1.79-4 4v52h36V64c0-2.21-1.79-4-4-4z" fill="#3e2723"/><path d="M75.39 51.89H54.61c-1.39 0-2.52-1.13-2.52-2.52V28.58c0-1.39 1.13-2.52 2.52-2.52h20.78c1.39 0 2.52 1.13 2.52 2.52v20.78c.01 1.4-1.12 2.53-2.52 2.53z" fill="#3e2723"/><path d="M37.38 86.38h-12c-1.1 0-2-.9-2-2v-22c0-1.1.9-2 2-2h12c1.1 0 2 .9 2 2v22c0 1.1-.9 2-2 2z" fill="#3e2723"/><path d="M37.38 62.38v22h-12v-22h12m0-2h-12c-1.1 0-2 .9-2 2v22c0 1.1.9 2 2 2h12c1.1 0 2-.9 2-2v-22a2 2 0 0 0-2-2z" fill="#424242" opacity=".2"/><path d="M90.05 86.38h12c1.1 0 2-.9 2-2v-22c0-1.1-.9-2-2-2h-12c-1.1 0-2 .9-2 2v22c0 1.1.9 2 2 2z" fill="#3e2723"/><path d="M102.05 62.38v22h-12v-22h12m0-2h-12c-1.1 0-2 .9-2 2v22c0 1.1.9 2 2 2h12c1.1 0 2-.9 2-2v-22a2 2 0 0 0-2-2z" fill="#424242" opacity=".2"/><linearGradient id="IconifyId-1790f3cb797-6a5f26-4645" gradientUnits="userSpaceOnUse" x1="59.83" y1="71.273" x2="59.83" y2="13.63" gradientTransform="matrix(1 0 0 -1 0 128)"><stop offset="0" stop-color="#8d6e63"/><stop offset=".185" stop-color="#87665b"/><stop offset=".622" stop-color="#7d594d"/><stop offset="1" stop-color="#795548"/></linearGradient><path d="M57.41 114.88l1.32-9.02l-4.32 8.38l-1.14-.21a.492.492 0 0 1-.4-.56l7.82-53.01c.04-.24.25-.43.49-.43l.42.06l-1.59 11.19l4.11-10.82l2.25.34c.27.04.46.3.42.57l-7.84 53.1c-.04.24-.25.43-.49.43l-1.05-.02z" fill="url(#IconifyId-1790f3cb797-6a5f26-4645)"/><path d="M64.44 61l1.85.28l-7.84 53.1h-.47l.8-5.49l.87-5.93l-2.75 5.32l-2.78 5.39l-.78-.14l5.63-38.15l3.09-8.14L64.44 61m-3.26-1.47c-.49 0-.91.36-.99.85l-7.82 53.01c-.08.53.28 1.03.81 1.13l1.51.28l3.12-6.05l-.97 6.62l1.61.01h.01c.5 0 .92-.36.99-.85l7.84-53.1c.08-.55-.3-1.05-.84-1.14l-2.65-.4l-2.66 7l1.03-7.23l-.84-.12c-.06-.01-.11-.01-.15-.01z" fill="#5d4037"/><linearGradient id="IconifyId-1790f3cb797-6a5f26-4646" gradientUnits="userSpaceOnUse" x1="61.624" y1="39.82" x2="75.326" y2="39.82" gradientTransform="matrix(1 0 0 -1 0 128)"><stop offset="0" stop-color="#795548"/><stop offset=".403" stop-color="#725044"/><stop offset="1" stop-color="#6d4c41"/></linearGradient><path d="M67.16 114.74l-5.11-.75a.502.502 0 0 1-.42-.57l7.58-51.38c.04-.24.25-.43.49-.43l1.01.14l-.57 6.31l3.45-5.82l1.29.16c.13.02.25.09.34.19s.12.24.1.38l-7.58 51.35c-.04.24-.25.43-.49.43c-.04 0-.07-.01-.09-.01z" fill="url(#IconifyId-1790f3cb797-6a5f26-4646)"/><path d="M69.7 62.11l.46.07l-.73 8.03l2.25-3.8l2.16-3.64l.96.12l-7.58 51.35l-5.11-.75l7.59-51.38m0-1c-.49 0-.91.36-.99.85l-7.58 51.38c-.08.55.3 1.05.84 1.14l5.11.75a1.008 1.008 0 0 0 1.14-.84l7.58-51.35c.08-.55-.31-1.07-.87-1.14l-1.61-.2l-2.49 4.2l.41-4.58l-1.41-.2c-.04-.01-.08-.01-.13-.01z" fill="#5d4037"/><linearGradient id="IconifyId-1790f3cb797-6a5f26-4647" gradientUnits="userSpaceOnUse" x1="50.99" y1="67" x2="50.99" y2="15.85" gradientTransform="matrix(1 0 0 -1 0 128)"><stop offset="0" stop-color="#795548"/><stop offset=".403" stop-color="#725044"/><stop offset="1" stop-color="#6d4c41"/></linearGradient><path d="M51.26 60.38l-7.62 51.63c-.08.55.3 1.05.84 1.14l2.18.32l2.02-7.38l-.58 7.96h1.62c.5 0 .92-.36.99-.85l7.63-51.7a.997.997 0 0 0-.91-1.14l-2.3-.19l-3.32 7.65l1.21-8.18l-.62-.09a.984.984 0 0 0-1.14.83z" fill="url(#IconifyId-1790f3cb797-6a5f26-4647)" stroke="#5d4037" stroke-miterlimit="10"/><linearGradient id="IconifyId-1790f3cb797-6a5f26-4648" gradientUnits="userSpaceOnUse" x1="77.038" y1="64.018" x2="77.038" y2="14.77" gradientTransform="matrix(1 0 0 -1 0 128)"><stop offset="0" stop-color="#8d6e63"/><stop offset=".185" stop-color="#87665b"/><stop offset=".622" stop-color="#7d594d"/><stop offset="1" stop-color="#795548"/></linearGradient><path d="M75.86 114.89l-2.72-.42l1.02-8.52l-.98-.2l-2.37 8.39l-.56-.08l7.47-50.61c.04-.24.25-.43.49-.43l5.19.76a.5.5 0 0 1 .42.57l-7.4 50.11c-.04.24-.25.43-.49.43c0 .01-.05.01-.07 0z" fill="url(#IconifyId-1790f3cb797-6a5f26-4648)"/><path d="M78.22 63.53l5.11.76l-7.4 50.11l-2.24-.35l.96-8.04l-1.96-.39l-1.46 5.15l6.99-47.24m-.01-1c-.49 0-.91.36-.99.85l-7.54 51.11l1.48.22l2.49-8.82l-1.08 9l3.2.49a1.008 1.008 0 0 0 1.14-.84l7.4-50.11c.08-.55-.3-1.05-.84-1.14l-5.11-.75c-.05 0-.1-.01-.15-.01z" fill="#5d4037"/><linearGradient id="IconifyId-1790f3cb797-6a5f26-4649" gradientUnits="userSpaceOnUse" x1="34.55" y1="65.651" x2="34.55" y2="44.39" gradientTransform="matrix(1 0 0 -1 0 128)"><stop offset="0" stop-color="#8d6e63"/><stop offset=".185" stop-color="#87665b"/><stop offset=".622" stop-color="#7d594d"/><stop offset="1" stop-color="#795548"/></linearGradient><path d="M36.12 79.64l-2.05 4.86l-2.2-.03c-.22 0-.39-.05-.47-.09l.13-22.53c.09-.04.26-.09.49-.09h.6l1.39 1.99l.85-1.98l2.34.01c.24 0 .41.05.5.09l-.13 22.57c-.07.03-.2.07-.39.08l-1.07.06l.01-4.94z" fill="url(#IconifyId-1790f3cb797-6a5f26-4649)"/><path d="M32.03 62.24v.02h.33l.73 1.04l1.03 1.47l.71-1.66l.36-.85l2.01.01l-.12 21.76l-.46.03v-1.95l.01-4.97l-1.93 4.58l-.96 2.28l-1.83-.02l.12-21.74m-.01-.98c-.55 0-.99.2-.99.46L30.9 84.5c0 .25.42.46.96.47l2.54.03l1.22-2.88l-.01 3.01l1.6-.1c.49-.03.86-.22.86-.45l.13-22.83c0-.26-.44-.46-1-.47l-2.68-.02l-.62 1.46l-1.02-1.46h-.85h-.01z" fill="#5d4037"/><linearGradient id="IconifyId-1790f3cb797-6a5f26-4650" gradientUnits="userSpaceOnUse" x1="26.531" y1="68.179" x2="26.531" y2="49.656" gradientTransform="scale(1 -1) rotate(-2.367 -3071.895 -6.724)"><stop offset="0" stop-color="#795548"/><stop offset=".403" stop-color="#725044"/><stop offset="1" stop-color="#6d4c41"/></linearGradient><path d="M26.97 83.77c-.05 0-.11 0-.16-.01l-1.14-.13l.22-5.91l-2.47 5.33l-1.78-.34c-.24-.04-.4-.13-.47-.19L25.83 58c.05-.01.13-.03.24-.03c.09 0 .18.01.27.03l.12.02l-1.01 5.32l3.91-4.67l2 .32c.27.04.44.14.52.2l-4.67 24.55c-.05.02-.13.03-.24.03z" fill="url(#IconifyId-1790f3cb797-6a5f26-4650)"/><path d="M29.56 59.22l1.72.27c.01 0 .02 0 .03.01L26.8 83.26l-.6-.07l.11-2.96l.18-4.97l-2.09 4.51l-1.26 2.72l-1.4-.27l3.36-17.68l1.97-2.35l2.49-2.97m-3.5-1.74c-.38 0-.67.12-.71.32l-4.7 24.74c-.05.26.35.56.89.66l2.17.41l1.59-3.43l-.14 3.88l1.6.19c.08.01.15.01.22.01c.38 0 .67-.12.71-.32l4.71-24.77c.05-.27-.39-.58-.96-.67l-2.28-.36l-2.86 3.41l.75-3.92l-.61-.12c-.14-.02-.26-.03-.38-.03z" fill="#5d4037"/><linearGradient id="IconifyId-1790f3cb797-6a5f26-4651" gradientUnits="userSpaceOnUse" x1="92.88" y1="70.674" x2="92.88" y2="41.921" gradientTransform="matrix(1 0 0 -1 0 128)"><stop offset="0" stop-color="#8d6e63"/><stop offset=".185" stop-color="#87665b"/><stop offset=".622" stop-color="#7d594d"/><stop offset="1" stop-color="#795548"/></linearGradient><path d="M90.25 84.54c-.2-.01-.33-.05-.39-.08l-.13-22.57c.09-.04.26-.09.5-.09l2.34-.01l.85 1.98l1.39-1.99h.59c.24 0 .41.05.5.09l.13 22.53c-.08.04-.25.09-.47.09l-2.19.03l-2.05-4.86l.01 4.97l-1.08-.09z" fill="url(#IconifyId-1790f3cb797-6a5f26-4651)"/><path d="M95.4 62.25l.12 21.72l-1.83.03l-.95-2.26l-1.93-4.58l.01 4.97v1.95l-.46-.03l-.12-21.76l2.01-.01l.36.85l.71 1.66l1.03-1.47l.73-1.04h.33l-.01-.03m0-.99h-.86l-1.02 1.46l-.62-1.46l-2.68.02c-.55 0-1 .21-1 .47l.13 22.83c0 .23.37.42.86.45l1.6.1l-.01-3.01L93.03 85l2.53-.03c.54-.01.96-.22.96-.47l-.13-22.78c0-.25-.44-.46-.99-.46z" fill="#5d4037"/><linearGradient id="IconifyId-1790f3cb797-6a5f26-4652" gradientUnits="userSpaceOnUse" x1="101.07" y1="65.679" x2="101.07" y2="47.266" gradientTransform="matrix(1 0 0 -1 0 128)"><stop offset="0" stop-color="#795548"/><stop offset=".403" stop-color="#725044"/><stop offset="1" stop-color="#6d4c41"/></linearGradient><path d="M100.14 85.58a.9.9 0 0 1-.29-.04L96.2 60.81c.08-.06.26-.14.53-.17l2.01-.23l3.72 4.82l-.79-5.35l.12-.02c.08-.01.15-.02.22-.02a.9.9 0 0 1 .29.04l3.64 24.69c-.08.05-.24.13-.48.17l-1.8.26l-2.25-5.43l-.03 5.91l-1.24.1z" fill="url(#IconifyId-1790f3cb797-6a5f26-4652)"/><path d="M98.52 60.94l2.37 3.08l1.87 2.43l2.63 17.8l-1.41.21l-1.15-2.77l-1.9-4.59l-.02 4.97l-.01 2.96l-.61.05l-3.53-23.93h.03l1.73-.21m3.49-1.6c-.09 0-.19.01-.29.02l-.62.09l.59 3.95l-2.72-3.53l-2.29.26c-.57.07-1.02.36-.98.63l3.68 24.95c.03.21.35.35.77.35c.05 0 .1 0 .15-.01l1.6-.12l.02-3.89l1.45 3.49l2.18-.32c.55-.08.96-.36.92-.62l-3.68-24.91c-.04-.2-.36-.34-.78-.34z" fill="#5d4037"/><linearGradient id="IconifyId-1790f3cb797-6a5f26-4653" gradientUnits="userSpaceOnUse" x1="64.98" y1="103.561" x2="64.98" y2="78.237" gradientTransform="matrix(1 0 0 -1 0 128)"><stop offset="0" stop-color="#8d6e63"/><stop offset=".185" stop-color="#87665b"/><stop offset=".622" stop-color="#7d594d"/><stop offset="1" stop-color="#795548"/></linearGradient><path d="M57.38 55.13c-.12-.02-.36-.1-.66-.33l-1.51-1.15l3.58-6.02l-5.92 3.65l-2.19-1.93c-.36-.32-.5-.61-.54-.74l22.43-25.79c.17.02.47.15.8.44l.4.36l-1.21 3.72l4.17-.9l2.49 2.07c.4.33.56.66.6.79L57.38 55.13z" fill="url(#IconifyId-1790f3cb797-6a5f26-4653)"/><path d="M72.77 23.59c.06.04.12.09.19.15l.09.08l-.73 2.26l-.69 2.13l2.19-.47l2.77-.6L78.84 29c.09.07.16.15.22.22L57.2 54.36l-.09-.06l-1.05-.8L58 50.23l2.69-4.52l-4.48 2.76l-3.27 2.02l-1.83-1.61c-.07-.06-.13-.12-.18-.18l21.84-25.11m-.22-1.42c-.16 0-.29.05-.38.14L49.6 48.26c-.27.31.02 1.01.66 1.57l2.54 2.25l4.09-2.52l-2.53 4.26l1.96 1.5c.39.3.79.46 1.09.46c.16 0 .29-.05.38-.14l22.6-25.99c.28-.32-.05-1.07-.74-1.64l-2.73-2.27l-3.38.73l.99-3.06l-.72-.64c-.43-.38-.92-.6-1.26-.6z" fill="#5d4037"/><linearGradient id="IconifyId-1790f3cb797-6a5f26-4654" gradientUnits="userSpaceOnUse" x1="65.005" y1="107.461" x2="65.005" y2="81.322" gradientTransform="matrix(1 0 0 -1 0 128)"><stop offset="0" stop-color="#795548"/><stop offset=".403" stop-color="#725044"/><stop offset="1" stop-color="#6d4c41"/></linearGradient><path d="M50.22 28.56c.05-.13.21-.41.57-.71l.75-.61l3.44.96l-.89-3.04l2.86-2.33c.34-.28.65-.4.81-.42l22.03 27.03c-.04.12-.17.34-.44.6l-1.3 1.21l-4.54-5.54l2.17 7.27l-2.7 2.17c-.35.27-.63.37-.77.39L50.22 28.56z" fill="url(#IconifyId-1790f3cb797-6a5f26-4654)"/><path d="M57.56 23.18l21.43 26.29l-.08.08l-.8.74l-2.07-2.52l-4.07-4.97l1.84 6.16l1.13 3.78l-2.35 1.89c-.06.05-.12.09-.17.12L51.01 28.52c.05-.05.11-.11.18-.17l.49-.4l2 .56l2.24.62l-.66-2.23l-.45-1.51l2.53-2.06c.09-.06.15-.11.22-.15m.24-1.42c-.34 0-.82.2-1.26.56l-3.19 2.6l.69 2.34l-2.65-.73l-1.01.82c-.66.54-.99 1.22-.74 1.52l22.14 27.16c.08.1.21.15.38.15c.33 0 .79-.19 1.22-.53l3.04-2.44l-1.38-4.61l2.94 3.58l1.8-1.68c.56-.52.81-1.11.58-1.38L58.18 21.91c-.08-.1-.21-.15-.38-.15z" fill="#5d4037"/><path d="M116 82.95c-.38.5-16 12-16 12v8s-8.75 11.44-8 11.69s12-11.69 12-11.69v-5.81l12-6.19v-8z" fill="#553a30"/><path d="M34.97 48.58v-8s-3.54-2.69-7.26-5.46l-5.15 3.29l8.41 4.35v5.81s11.25 11.94 12 11.69s-8-11.68-8-11.68z" fill="#553a30"/><rect x="0" y="0" width="128" height="128" fill="rgba(0, 0, 0, 0)" /></svg>