<svg xmlns="http://www.w3.org/2000/svg" xmlns:xlink="http://www.w3.org/1999/xlink" width="128" height="128" preserveAspectRatio="xMidYMid meet" viewBox="0 0 128 128" style="-ms-transform: rotate(360deg); -webkit-transform: rotate(360deg); transform: rotate(360deg);"><linearGradient id="IconifyId-1790f3e76ee-b1ae7d-4751" x1="64" x2="64" y1="4.106" y2="52.447" gradientTransform="matrix(-1 0 0 1 128 0)" gradientUnits="userSpaceOnUse"><stop stop-color="#90A4AE" offset="0"/><stop stop-color="#849AA5" offset=".339"/><stop stop-color="#637F8D" offset=".958"/><stop stop-color="#607D8B" offset="1"/></linearGradient><path d="M25.51 27.27a6.57 6.57 0 0 1 3.84-1.92c1.86-.24 4.01.06 5.92-1.47C37.28 22.27 47.24 3.92 51.86 4c1.22.02 2.22 1.08 3.12 2.42c1.61 2.4 2.88 5.73 4.51 5.73c3.41 0 3.41 10.17 7.57 11.39c3.85 1.12 5.13 1.07 8.73 6.32c4.05-4.93 7.6-8.66 9.69-9.6c.35-.16.66-.26.92-.26c3.02 0 6.13 8.05 9.24 12.99s4.57 3.66 7.5 3.29C106.07 35.92 124 64 124 64H4s13.95-28.93 21.51-36.73z" fill="url(#IconifyId-1790f3e76ee-b1ae7d-4751)"/><path d="M25.51 27.27a6.57 6.57 0 0 1 3.84-1.92c1.86-.24 4.01.06 5.92-1.47C37.28 22.27 47.24 3.92 51.86 4c1.22.02 2.22 1.08 3.12 2.42c1.61 2.4 2.88 5.73 4.51 5.73c3.41 0 3.41 10.17 7.57 11.39c3.85 1.12 5.13 1.07 8.73 6.32c4.05-4.93 7.6-8.66 9.69-9.6c.35-.16.66-.26.92-.26c3.02 0 6.13 8.05 9.24 12.99s4.57 3.66 7.5 3.29C106.07 35.92 124 64 124 64H4s13.95-28.93 21.51-36.73z" fill="url(#IconifyId-1790f3e76ee-b1ae7d-4751)"/><linearGradient id="IconifyId-1790f3e76ee-b1ae7d-4752" x1="42.691" x2="64.116" y1="33.809" y2="55.235" gradientUnits="userSpaceOnUse"><stop stop-color="#607D8B" offset="0"/><stop stop-color="#57727F" offset=".315"/><stop stop-color="#455A64" offset=".786"/><stop stop-color="#455A64" offset="1"/></linearGradient><path d="M51.17 27.58c-5.04-10.38.04-17.6 3.81-21.16c1.61 2.4 2.88 5.73 4.51 5.73c3.41 0 3.41 10.17 7.57 11.39c4.16 1.21 5.32 1.04 9.65 7.69c7.84 12 19.14 31.61 22.09 32.77H33.21c17.85-18.03 23.07-25.87 17.96-36.42z" fill="url(#IconifyId-1790f3e76ee-b1ae7d-4752)"/><radialGradient id="IconifyId-1790f3e76ee-b1ae7d-4753" cx="42" cy="10.75" r="36.517" gradientUnits="userSpaceOnUse"><stop stop-color="#90A4AE" offset="0"/><stop stop-color="#7D94A0" offset=".271"/><stop stop-color="#607D8B" offset=".729"/><stop stop-color="#607D8B" offset="1"/></radialGradient><path d="M25.51 27.27a6.57 6.57 0 0 1 3.84-1.92c1.86-.24 4.01.06 5.92-1.47C37.28 22.27 47.24 3.92 51.86 4c1.22.02 2.22 1.08 3.12 2.42c-3.76 3.56-8.84 10.78-3.81 21.16c5.11 10.54-.1 18.39-17.96 36.42H4s13.95-28.93 21.51-36.73z" fill="url(#IconifyId-1790f3e76ee-b1ae7d-4753)"/><path d="M81.49 44.41c-2.49-4-5.06-8.13-7.29-11.55c-3.36-5.14-4.05-5.34-6.96-6.16c-.32-.09-.66-.18-1.02-.29c-3.61-1.05-5-5.03-6.12-8.22c-.35-1-.86-2.45-1.25-3.09c-2.52-.37-3.94-2.87-5.21-5.09c-.38-.66-.77-1.35-1.15-1.92c-.34-.51-.59-.8-.75-.96c-2.47 1.39-8.02 9.83-10.17 13.1c-2.37 3.61-3.46 5.24-4.42 6c-2.21 1.77-4.55 1.91-6.27 2.01c-.42.02-.81.05-1.14.09c-.81.11-1.53.46-2.08 1.03c-5.44 5.6-19.9 33.6-20.38 34.64H4s13.95-28.93 21.51-36.73a6.57 6.57 0 0 1 3.84-1.92c1.86-.24 4.01.06 5.92-1.47C37.28 22.28 47.19 4 51.83 4h.03c1.22.02 2.22 1.08 3.12 2.42c1.61 2.4 2.88 5.73 4.51 5.73c3.41 0 3.41 10.17 7.57 11.39c4.16 1.21 5.32 1.04 9.65 7.69c7.84 12 19.14 31.61 22.09 32.77h-4.44c-.72-.96-8.06-11.86-12.87-19.59z" fill="#424242" opacity=".2"/><radialGradient id="IconifyId-1790f3e76ee-b1ae7d-4754" cx="90.375" cy="24.25" r="35.184" gradientUnits="userSpaceOnUse"><stop stop-color="#607D8B" offset="0"/><stop stop-color="#57727F" offset=".332"/><stop stop-color="#455A64" offset=".83"/><stop stop-color="#455A64" offset="1"/></radialGradient><path d="M85.17 35.6c6.4-7.81 3.06-12.91.32-15.34c.34-.16.65-.26.91-.26c3.02 0 6.13 8.05 9.24 12.99s4.57 3.66 7.5 3.29C106.07 35.92 124 64 124 64H78.1c2.2-2.09 4.46-4.16 6.79-6.17c22.78-19.76-9.05-10.84.28-22.23z" fill="url(#IconifyId-1790f3e76ee-b1ae7d-4754)"/><radialGradient id="IconifyId-1790f3e76ee-b1ae7d-4755" cx="83.875" cy="22.125" r="36" gradientUnits="userSpaceOnUse"><stop stop-color="#90A4AE" offset="0"/><stop stop-color="#849AA5" offset=".291"/><stop stop-color="#637F8D" offset=".823"/><stop stop-color="#607D8B" offset=".86"/><stop stop-color="#607D8B" offset="1"/></radialGradient><path d="M85.49 20.26c2.73 2.43 6.07 7.53-.32 15.34c-9.33 11.39 22.5 2.47-.27 22.23A212.85 212.85 0 0 0 78.11 64H51.73c4.54-7.93 26.91-40.67 33.76-43.74z" fill="url(#IconifyId-1790f3e76ee-b1ae7d-4755)"/><path d="M102.68 39.39c-.08.01-.16.03-.24.05c-.7.13-1.42.27-2.22.27c-3.43 0-5.52-2.59-7.11-5.12c-.94-1.49-1.86-3.21-2.75-4.87c-1.12-2.09-2.91-5.44-4.02-6.52c-5.14 3.08-21.39 25.54-29.13 37.6c-.09.13-.16.26-.24.4c-.29.53-1.1 1.99-1.56 2.8h-3.68c4.53-7.93 26.9-40.67 33.76-43.74c.34-.16.65-.26.91-.26c3.02 0 6.13 8.05 9.24 12.99c1.9 3.02 3.19 3.72 4.57 3.72c.88 0 1.79-.28 2.93-.42h.06C106.3 36.28 124 64 124 64h-4c-.45-1.14-14.83-22.43-17.32-24.61z" fill="#424242" opacity=".2"/><linearGradient id="IconifyId-1790f3e76ee-b1ae7d-4756" x1="64" x2="64" y1="63.875" y2="49.896" gradientUnits="userSpaceOnUse"><stop stop-color="#455A64" offset=".004"/><stop stop-color="#455A64" stop-opacity="0" offset="1"/></linearGradient><path d="M103.14 36.28c-2.93.37-4.39 1.65-7.5-3.29S89.42 20 86.4 20c-.26 0-.57.1-.91.26c-2.1.94-5.65 4.66-9.69 9.6c-3.6-5.25-4.88-5.19-8.73-6.32c-4.16-1.21-4.16-11.39-7.57-11.39c-1.63 0-2.91-3.33-4.51-5.73c-.9-1.34-1.89-2.4-3.12-2.42c-4.63-.08-14.58 18.27-16.59 19.88c-1.91 1.53-4.06 1.22-5.92 1.47c-1.46.19-2.81.86-3.84 1.92C17.95 35.07 4 64 4 64h120s-17.93-28.08-20.86-27.72z" fill="url(#IconifyId-1790f3e76ee-b1ae7d-4756)" opacity=".7"/><path d="M80.86 36.93c.11-.31-.29-.53-.49-.27c-2.62 3.46-12.53 13.15-16.26 17.4c-.36.41.1 1.03.6.8c1.52-.7 4.57-2.44 4.86-3.1c.41-.93 2.79-3.28 3.54-4.02c.15-.14.3-.28.46-.41l3-2.49c.59-.49 1.06-1.1 1.38-1.78l2.91-6.13z" fill="#E0E0E0" opacity=".2"/><path d="M84.48 44.39c.16-.21-.07-.49-.3-.38l-2.87 1.26c-.22.14-.39.35-.5.59l-3.58 7.37c-.06.3.35.46.5.18l6.75-9.02z" fill="#E0E0E0" opacity=".2"/><path d="M46.35 18.55c.07-.43-.51-.62-.7-.23C43.13 23.48 32.71 38.55 28.94 45c-.37.63.39 1.31.98.88c1.79-1.29 5.32-4.32 5.52-5.24c.29-1.31 2.79-4.96 3.58-6.11c.16-.22.32-.44.49-.65l3.26-3.99a6.92 6.92 0 0 0 1.35-2.66l2.23-8.68z" fill="#E0E0E0" opacity=".2"/><path d="M33.81 31.63c.23-.26-.03-.65-.35-.54l-3.92 1.32c-.3.16-.56.41-.73.71l-5.59 9.28c-.12.39.41.64.64.3l9.95-11.07z" fill="#E0E0E0" opacity=".2"/><path d="M101.42 50.73c.19.12.4-.13.25-.3c-2.02-2.26-7.33-10.36-9.74-13.48c-.23-.3-.72-.07-.63.3c.28 1.13 1.06 3.46 1.47 3.75c.59.4 1.88 2.35 2.28 2.97c.08.12.15.24.22.37l1.31 2.39c.26.47.61.87 1.04 1.19l3.8 2.81z" fill="#424242" opacity=".2"/><path d="M100.36 44.05c-.08-.16.06-.2.25-.07l3.23 2.4c.23.11.47.31.61.52l3.33 4.81l-2.52-2.35c-.12-.11-.25-.11-.21-.01l1.49 3.9c.05.17-.23.09-.73 0l-5.45-9.2z" fill="#424242" opacity=".2"/><path d="M52.89 19.59c-.07-.28.17-.28.41-.01l4.03 4.92c.32.27.6.66.74 1.03l3.26 8.66l-2.97-4.57c-.14-.21-.34-.27-.32-.09l.79 6.56c.02.28-.39.05-1.12-.28l-4.82-16.22z" fill="#424242" opacity=".2"/><linearGradient id="IconifyId-1790f3e76ee-b1ae7d-4757" x1="64.912" x2="64.912" y1="55.625" y2="64.25" gradientUnits="userSpaceOnUse"><stop stop-color="#43A047" offset=".006"/><stop stop-color="#3E9842" offset=".349"/><stop stop-color="#328336" offset=".87"/><stop stop-color="#2E7D32" offset="1"/></linearGradient><path d="M90.69 64.1s-1.33-.87-2.02-2.12c.72.09 1.89.15 1.56-.54c0 0-1.46-1-2-2.4c.22.02.46-.01.68-.15c0 0 .31-.21-.53-1c0 0-.72-.6-1.84-3.32a.545.545 0 0 0-1.01-.03c-.5 1.06-1.28 2.58-2.08 3.53c0 0-1.06 1.25.68.79c-.3.41-1.46 1.93-2.18 2.32c0 0-.16.17-.14.36c-.42-.44-.87-1.01-1.15-1.66c.72.09 1.88.14 1.55-.51c0 0-1.2-.78-1.82-1.9c.65.08 1.7.13 1.4-.48c0 0-1.31-.9-1.79-2.15c.2.02.41-.01.61-.13c0 0 .27-.19-.47-.9c0 0-.64-.54-1.66-2.98a.493.493 0 0 0-.91-.03c-.45.95-1.15 2.32-1.87 3.18c0 0-.95 1.12.61.71c-.27.37-1.31 1.74-1.96 2.09c0 0-.74.81 1.34.7c-.49.58-1.23 1.41-1.75 1.67c0 0-.85.88 1.59.73c-.3.4-.77.98-1.24 1.48c-.01-.04-.01-.09-.04-.14c0 0-1.2-.78-1.82-1.9c.65.08 1.7.13 1.4-.48c0 0-1.31-.9-1.79-2.15c.2.02.41-.01.61-.13c0 0 .27-.19-.47-.9c0 0-.64-.54-1.66-2.98a.493.493 0 0 0-.91-.03c-.45.95-1.15 2.32-1.87 3.18c0 0-.95 1.12.61.71c-.27.37-1.31 1.74-1.96 2.09c0 0-.74.81 1.34.7c-.46.55-1.16 1.32-1.67 1.62c-.17-.26-.32-.53-.44-.83c.26.03.53-.01.79-.17c0 0 .36-.25-.62-1.17c0 0-.83-.7-2.15-3.87a.64.64 0 0 0-1.18-.03c-.58 1.23-1.5 3.01-2.42 4.12c0 0-1.23 1.46.79.93c-.22.29-.81 1.08-1.44 1.75c-.38-.37-.83-.9-1.1-1.52c.58.07 1.51.11 1.24-.41c0 0-.96-.62-1.46-1.52c.52.07 1.36.1 1.12-.39c0 0-1.05-.72-1.44-1.72c.16.02.33-.01.49-.11c0 0 .22-.15-.38-.72c0 0-.52-.43-1.33-2.39a.395.395 0 0 0-.73-.02c-.36.76-.92 1.86-1.5 2.54c0 0-.76.9.49.57c-.22.29-1.05 1.39-1.57 1.67c0 0-.59.65 1.07.56c-.39.47-.99 1.13-1.4 1.34c0 0-.68.7 1.27.59c-.43.56-1.26 1.58-1.82 1.89c0 0-.77.84 1.39.73c-.51.61-1.28 1.46-1.82 1.74c0 0-.09.1-.13.22c-.25-.24-.5-.55-.69-.89c.52.07 1.36.1 1.12-.39c0 0-1.05-.72-1.44-1.72c.16.02.33-.01.49-.11c0 0 .22-.15-.38-.72c0 0-.52-.43-1.33-2.39a.395.395 0 0 0-.73-.02c-.36.76-.92 1.86-1.5 2.54c0 0-.76.9.49.57c-.22.29-1.05 1.39-1.57 1.67c0 0-.59.65 1.07.56a9.6 9.6 0 0 1-.46.52c0-.04-.01-.08-.04-.14c0 0-.96-.62-1.46-1.52c.52.07 1.36.1 1.12-.39c0 0-1.05-.72-1.44-1.72c.16.02.33-.01.49-.11c0 0 .22-.15-.38-.72c0 0-.52-.43-1.33-2.39a.395.395 0 0 0-.73-.02c-.36.76-.92 1.86-1.5 2.54c0 0-.76.9.49.57c-.22.29-1.05 1.39-1.57 1.67c0 0-.59.65 1.07.56c-.39.47-.99 1.13-1.4 1.34c0 0-.68.7 1.27.59c-.43.56-1.26 1.58-1.82 1.89c0 0-.77.84 1.39.73c-.51.61-1.28 1.46-1.82 1.74c0 0-1.01 1.04 2.22.71c0 0 .17 1.04 2.22.12c0 0 .66.35 1.23.38c-.16.22-.46.92 2.27.65c0 0 .17 1.04 2.22.12c0 0 1.79.95 1.99-.15c0 0 2.65.51 2.16-.45c0 0-1.24-.81-1.89-1.98c.67.09 1.77.14 1.45-.5c0 0-1.26-.88-1.8-2.11c.58.07 1.51.11 1.24-.41l-.18-.13c.36.06.91.07 1.77-.01c0 0 .17 1.04 2.22.12c0 0 .79.42 1.38.38c-.04.04-1.2 1.29 2.78.89c0 0 .22 1.3 2.77.15c0 0 .74.39 1.41.46c-.18.23-.76 1.2 2.81.84c0 0 .22 1.3 2.77.15c0 0 2.23 1.19 2.48-.19c0 0 3.31.63 2.7-.56c0 0-.68-.45-1.37-1.17c.37 0 .82-.02 1.38-.08c0 0 .22 1.3 2.77.15c0 0 2.23 1.19 2.48-.19c0 0 3.31.63 2.7-.56c0 0-.55-.37-1.17-.96c.38.03.89.02 1.6-.05c0 0 .19 1.12 2.38.13c0 0 1.92 1.02 2.13-.16c.06.02 2.9.56 2.38-.46zM46.8 66.25c-.15-.14-.32-.31-.49-.5c.21.03.49.04.87.02c-.1.14-.23.3-.38.48zm-.19-1.63c-.25.24-.49.46-.7.56l-.02.02c-.12-.18-.23-.37-.32-.57c.33.04.77.06 1.04-.01zm11.72.57s.04.01.09.02c-.04.04-.09.08-.13.11c.02-.04.04-.08.04-.13zM73.1 65c.02 0 .05.01.08.01c-.02.01-.03.02-.05.04c-.01-.02-.02-.04-.03-.05z" fill="url(#IconifyId-1790f3e76ee-b1ae7d-4757)"/><linearGradient id="IconifyId-1790f3e76ee-b1ae7d-4758" x1="37.014" x2="37.014" y1="52.082" y2="65.202" gradientUnits="userSpaceOnUse"><stop stop-color="#43A047" offset=".006"/><stop stop-color="#3E9842" offset=".349"/><stop stop-color="#328336" offset=".87"/><stop stop-color="#2E7D32" offset="1"/></linearGradient><path d="M40.08 65.5s-.88-.57-1.33-1.39c.47.06 1.25.1 1.03-.35c0 0-.96-.66-1.31-1.58c.15.02.3-.01.44-.1c0 0 .2-.14-.35-.66c0 0-.47-.4-1.21-2.19a.364.364 0 0 0-.67-.02c-.33.7-.84 1.7-1.37 2.33c0 0-.7.82.45.52c-.2.27-.96 1.27-1.43 1.53c0 0-.54.59.98.51c-.36.43-.9 1.03-1.28 1.23c0 0-.71.73 1.57.5c0 0 .12.73 1.57.08c0 0 1.26.67 1.4-.1c-.02 0 1.85.36 1.51-.31z" fill="url(#IconifyId-1790f3e76ee-b1ae7d-4758)"/><g fill="#424242" opacity=".2"><path d="M77.98 51.75c.51 1.15.93 1.83 1.21 2.21l-.42-.04l.47 1.22c.23.59.6 1.11.97 1.52l-1.3-.16l.77 1.38c.26.47.6.88.92 1.21l-1.25-.15l.56 1.28c.28.64.72 1.27 1.31 1.89l1.58 1.66l-.18-2.05c.76-.56 1.65-1.69 2.15-2.36l1.35-1.83l-1.56.41c.54-.79 1.05-1.73 1.45-2.55c.69 1.58 1.23 2.4 1.54 2.79l-.53-.06l.47 1.22c.28.74.78 1.37 1.23 1.85L87.21 61l.77 1.38c.33.6.78 1.11 1.2 1.51c-.35-.04-.64-.09-.64-.09l-.79-.13l-.13.69c-.31-.01-.8-.22-.98-.32l-.35-.18l-.36.16c-.62.28-.98.34-1.18.34c-.05 0-.08 0-.11-.01l-.1-.6l-.75.08c-.41.04-.77.06-1.07.06c-.14 0-.27 0-.38-.01l-2.21-.17l1.59 1.54c.11.11.22.21.33.3c-.58-.04-1.14-.14-1.15-.14l-.8-.11l-.14.75h-.08c-.37 0-.96-.24-1.24-.38l-.35-.18l-.36.16c-.74.33-1.19.41-1.43.41c-.14 0-.21-.02-.24-.04l-.11-.66l-.75.08c-.48.05-.9.07-1.3.07h-.25l1.33-1.06l-1.91-.23l-.13.78l.06-.8l-1.56-.2l.76 1.38l.03.06l.02.03l.01.02h-.26l1.31 1.36c.19.19.37.37.55.52c-.58-.04-1.14-.14-1.15-.14l-.8-.11l-.14.75h-.08c-.37 0-.96-.24-1.24-.38l-.35-.18l-.36.16c-.74.33-1.19.41-1.43.41c-.14 0-.21-.02-.24-.04l-.11-.66l-.75.08c-.49.05-.93.08-1.29.08c-.21 0-.38-.01-.51-.02l.58-.74l-1.44-.15c-.42-.05-.96-.29-1.13-.38l-.35-.18l-.36.16c-.74.33-1.19.41-1.43.41c-.14 0-.21-.02-.24-.04l-.11-.66l-.75.08c-.49.05-.93.08-1.29.08h-.26l.08-.06l1.27-1.11l-1.66-.28l-.08-.01l-.79-.16l-.12.67c-.26-.02-.64-.17-.85-.28l-.35-.18l-.36.16c-.6.27-.93.31-1.08.31h-.05l-.09-.57l-.75.08c-.3.03-.57.05-.81.06c.29-.28.65-.66 1.1-1.2l1.18-1.41l-1.84.1h-.03c.34-.35.72-.79 1.13-1.33l1.07-1.39l-1.48.09c.16-.17.33-.36.53-.6l1.18-1.41l-1.41.07c.27-.31.53-.64.75-.94l1.16-1.58c.07.12.13.22.19.32l-.26-.03l.47 1.22c.14.35.33.67.54.95l-.95-.12l.77 1.38c.14.25.3.48.47.68l-.85-.1l.56 1.28c.26.61.69 1.2 1.28 1.77l.59.57l.56-.6c.65-.7 1.26-1.51 1.49-1.82l1.35-1.83l-1.81.47c.77-1.04 1.49-2.41 2.02-3.51c1.06 2.49 1.83 3.44 2.1 3.73l-.74-.08l.47 1.22c.12.31.28.62.51.97l.42.65l.66-.39c.49-.29 1.12-.89 1.87-1.8l1.18-1.41l-1.79.09c.48-.5.95-1.1 1.25-1.51l1.35-1.83l-1.41.37c.41-.62.8-1.33 1.12-1.97c.51 1.15.93 1.83 1.21 2.21l-.42-.04l.47 1.22c.23.59.6 1.11.97 1.52l-1.3-.16l.77 1.38c.52.94 1.37 1.66 1.8 1.99l.24 1.38l1.09-1.16c.53-.56 1.04-1.21 1.3-1.54l1.07-1.39l-1.75.1c-.06 0-.12.01-.18.01c.27-.26.6-.62 1.01-1.1l1.18-1.41l-1.79.09c.48-.5.95-1.1 1.25-1.51l1.35-1.83l-1.41.37c.47-.64.86-1.35 1.18-1.98M56.12 54c.13.28.25.51.36.72l-.9.24c.2-.32.38-.65.54-.96m-12.68 4.47c.13.28.25.51.36.72l-.9.24c.2-.32.38-.65.54-.96m.46.89c.07.12.13.22.19.32l-.26-.03l.47 1.22c.14.35.33.67.54.95l-.94-.12l.77 1.38c.14.25.3.48.47.68l-.85-.1l.46 1.05l-.44-.06l1.2 1.38l.31.44l.04-.05c.13.14.26.28.4.4l.62.58l.54-.66c.15-.19.29-.36.4-.51l1.07-1.39l-1.48.09l1.92-1.91l-.39.11l.17-.2l-1.41.07c.27-.31.53-.64.75-.94l1.16-1.58c.07.12.13.22.19.32l-.26-.03l.47 1.22c.14.35.33.67.54.95l-.95-.12l.68 1.22l-1.06-.18l1.32.99l-.54-.04l.56 1.28c.25.57.63 1.08.99 1.47l-1.38-.17l.77 1.38c.28.51.66.96 1.02 1.31c-.25-.03-.44-.07-.44-.07l-.79-.14l-.12.65c-.26-.02-.64-.18-.85-.28l-.35-.18l-.36.16c-.6.27-.93.31-1.08.31h-.05l-.09-.57l-.75.08c-.39.04-.73.06-1.02.06h-.13l.45-.64l-1.46-.07c-.28-.01-.69-.18-.89-.29l-.35-.18l-.36.16c-.6.27-.93.31-1.08.31h-.05l-.09-.57l-.75.08c-.3.03-.57.05-.81.06c.29-.28.65-.66 1.1-1.2l1.18-1.41l-1.82.09h-.03c.34-.35.72-.79 1.13-1.33l1.07-1.39l-1.48.09c.16-.17.33-.36.53-.6l1.18-1.41l-1.41.07c.27-.31.53-.64.75-.94l1.16-1.57m5.26.25c.13.28.25.51.36.72l-.9.24c.19-.32.37-.64.54-.96m28.83-9.1c-.18 0-.36.1-.45.29c-.45.95-1.15 2.32-1.87 3.18c0 0-.68.8.05.8c.13 0 .31-.03.55-.09c-.27.37-1.31 1.74-1.96 2.09c0 0-.65.71.98.71c.11 0 .23 0 .36-.01c-.49.58-1.23 1.41-1.75 1.67c0 0-.72.75 1.09.75c.15 0 .32-.01.5-.02c-.3.4-.77.98-1.24 1.48c-.01-.04-.01-.09-.04-.14c0 0-1.2-.78-1.82-1.9c.2.03.44.05.67.05c.5 0 .94-.11.73-.53c0 0-1.31-.9-1.79-2.15c.04 0 .08.01.12.01c.16 0 .33-.04.49-.14c0 0 .27-.19-.47-.9c0 0-.64-.54-1.66-2.98c-.09-.21-.28-.32-.46-.32s-.36.1-.45.29c-.45.95-1.15 2.32-1.87 3.18c0 0-.68.8.05.8c.13 0 .31-.03.55-.09c-.27.37-1.31 1.74-1.96 2.09c0 0-.65.71.98.71c.11 0 .23 0 .36-.01c-.46.55-1.16 1.32-1.67 1.62c-.17-.26-.32-.53-.44-.83c.05.01.1.01.15.01c.21 0 .43-.05.63-.18c0 0 .36-.25-.62-1.17c0 0-.83-.7-2.15-3.87a.649.649 0 0 0-.6-.41c-.23 0-.46.12-.58.38c-.58 1.23-1.5 3.01-2.42 4.12c0 0-.88 1.04.07 1.04c.17 0 .41-.03.72-.12c-.22.29-.81 1.08-1.44 1.75c-.38-.37-.83-.9-1.1-1.52c.18.02.39.04.59.04c.45 0 .83-.09.65-.45c0 0-.96-.62-1.46-1.52c.16.02.36.04.54.04c.4 0 .75-.09.58-.43c0 0-1.05-.72-1.44-1.72c.03 0 .06.01.09.01c.13 0 .27-.03.39-.11c0 0 .22-.15-.38-.72c0 0-.52-.43-1.33-2.39a.392.392 0 0 0-.37-.25c-.14 0-.28.08-.36.23c-.36.76-.92 1.86-1.5 2.54c0 0-.54.64.04.64c.11 0 .25-.02.44-.07c-.22.29-1.05 1.39-1.57 1.67c0 0-.52.57.78.57c.09 0 .19 0 .29-.01c-.39.47-.99 1.13-1.4 1.34c0 0-.58.6.87.6c.12 0 .25 0 .4-.01c-.43.56-1.26 1.58-1.82 1.89c0 0-.68.74 1.01.74c.11 0 .24 0 .38-.01c-.51.61-1.28 1.46-1.82 1.74c0 0-.09.1-.13.22c-.25-.24-.5-.55-.69-.89c.16.02.36.04.54.04c.4 0 .75-.09.58-.43c0 0-1.05-.72-1.44-1.72c.03 0 .06.01.09.01c.13 0 .27-.03.39-.11c0 0 .22-.15-.38-.72c0 0-.52-.43-1.33-2.39a.392.392 0 0 0-.37-.25c-.14 0-.28.08-.36.23c-.36.76-.92 1.86-1.5 2.54c0 0-.54.64.04.64c.11 0 .25-.02.44-.07c-.22.29-1.05 1.39-1.57 1.67c0 0-.52.57.78.57c.09 0 .19 0 .29-.01a9.6 9.6 0 0 1-.46.52c0-.04-.01-.08-.04-.14c0 0-.96-.62-1.46-1.52c.16.02.36.04.54.04c.4 0 .75-.09.58-.43c0 0-1.05-.72-1.44-1.72c.03 0 .06.01.09.01c.13 0 .27-.03.39-.11c0 0 .22-.15-.38-.72c0 0-.52-.43-1.33-2.39a.392.392 0 0 0-.37-.25c-.14 0-.28.08-.36.23c-.36.76-.92 1.86-1.5 2.54c0 0-.54.64.04.64c.11 0 .25-.02.44-.07c-.22.29-1.05 1.39-1.57 1.67c0 0-.52.57.78.57c.09 0 .19 0 .29-.01c-.39.47-.99 1.13-1.4 1.34c0 0-.58.6.87.6c.12 0 .25 0 .4-.01c-.43.56-1.26 1.58-1.82 1.89c0 0-.68.74 1.01.74c.11 0 .24 0 .38-.01c-.51.61-1.28 1.46-1.82 1.74c0 0-.75.78 1.13.78c.3 0 .66-.02 1.09-.06c0 0 .08.5.82.5c.32 0 .78-.1 1.4-.38c0 0 .66.35 1.23.38c-.13.19-.37.71 1.18.71c.3 0 .66-.02 1.1-.06c0 0 .08.5.82.5c.32 0 .78-.1 1.4-.38c0 0 .72.38 1.29.38c.33 0 .62-.13.69-.53c0 0 .7.13 1.32.13c.58 0 1.08-.12.84-.58c0 0-1.24-.81-1.89-1.98c.21.03.46.05.7.05c.52 0 .97-.11.76-.55c0 0-1.26-.88-1.8-2.11c.18.02.39.04.59.04c.45 0 .83-.09.65-.45l-.18-.13c.18.03.4.05.69.05s.65-.02 1.08-.06c0 0 .08.5.82.5c.32 0 .78-.1 1.4-.38c0 0 .72.38 1.29.38h.09c-.03.03-.9.97 1.41.97c.37 0 .82-.02 1.37-.08c0 0 .1.62 1.02.62c.41 0 .97-.12 1.75-.48c0 0 .74.39 1.41.46c-.15.19-.59.92 1.45.92c.37 0 .82-.02 1.37-.08c0 0 .1.62 1.02.62c.41 0 .97-.12 1.75-.48c0 0 .9.48 1.62.48c.42 0 .77-.16.87-.66c0 0 .88.17 1.65.17c.72 0 1.35-.15 1.05-.72c0 0-.68-.45-1.37-1.17h.03c.37 0 .81-.02 1.35-.08c0 0 .1.62 1.02.62c.41 0 .97-.12 1.75-.48c0 0 .9.48 1.62.48c.42 0 .77-.16.87-.66c0 0 .88.17 1.65.17c.72 0 1.35-.15 1.05-.72c0 0-.55-.37-1.17-.96c.13.01.28.02.44.02c.31 0 .69-.02 1.15-.07c0 0 .09.54.87.54c.35 0 .83-.11 1.51-.41c0 0 .77.41 1.39.41c.36 0 .66-.14.74-.57c0 0 .75.14 1.41.14c.62 0 1.16-.13.9-.62c0 0-1.33-.87-2.02-2.12c.22.03.49.05.75.05c.56 0 1.04-.12.81-.59c0 0-1.46-1-2-2.4c.04 0 .09.01.13.01c.18 0 .37-.04.54-.16c0 0 .31-.21-.53-1c0 0-.72-.6-1.84-3.32a.566.566 0 0 0-.52-.35c-.2 0-.4.11-.5.32c-.5 1.06-1.28 2.58-2.08 3.53c0 0-.76.89.06.89c.15 0 .35-.03.62-.1c-.3.41-1.46 1.93-2.18 2.32c0 0-.16.17-.14.36c-.42-.44-.87-1.01-1.15-1.66c.22.03.49.05.74.05c.56 0 1.04-.11.81-.56c0 0-1.2-.78-1.82-1.9c.2.03.44.05.67.05c.5 0 .94-.11.73-.53c0 0-1.31-.9-1.79-2.15c.04 0 .08.01.12.01c.16 0 .33-.04.49-.14c0 0 .27-.19-.47-.9c0 0-.64-.54-1.66-2.98c.07-.23-.12-.34-.31-.34zM46.61 64.62c-.25.24-.49.46-.7.56l-.02.02c-.12-.18-.23-.37-.32-.57c.17.02.38.04.57.04c.18 0 .34-.02.47-.05zm26.52.42c-.01-.02-.02-.03-.03-.05c.02 0 .05.01.08.01c-.02.02-.03.03-.05.04zm-14.83.28c.01-.04.03-.08.04-.13c0 0 .04.01.09.02c-.05.03-.09.07-.13.11zm-11.5.93c-.15-.14-.32-.31-.49-.5c.13.02.28.03.48.03c.12 0 .25 0 .39-.01c-.1.14-.23.3-.38.48z"/><path d="M36.98 60.39c.08.17.16.32.23.46l-.57.15c.12-.2.23-.41.34-.61m.3.95l.43 1.12c.11.28.25.53.41.76l-.84-.11l.77 1.38c.09.17.2.32.31.47l-.44-.08l-.08.46c-.11-.03-.22-.08-.3-.12l-.35-.18l-.36.16c-.23.1-.39.15-.5.18l-.07-.4l-.7.07c.11-.12.23-.26.36-.41l1.18-1.41l-1.28.07c.21-.25.41-.51.58-.74l.88-1.22M37 59c-.13 0-.26.07-.33.21c-.33.7-.84 1.7-1.37 2.33c0 0-.5.59.04.59c.1 0 .23-.02.41-.07c-.2.27-.96 1.27-1.43 1.53c0 0-.48.52.72.52c.08 0 .17 0 .27-.01c-.36.43-.9 1.03-1.28 1.23c0 0-.53.55.79.55c.21 0 .46-.01.77-.04c0 0 .06.35.58.35c.23 0 .55-.07.99-.27c0 0 .51.27.91.27c.24 0 .44-.09.49-.37c0 0 .5.09.93.09c.41 0 .76-.08.59-.41c0 0-.88-.57-1.33-1.39c.15.02.32.04.49.04c.37 0 .69-.08.53-.39c0 0-.96-.66-1.31-1.58h.09c.12 0 .24-.03.36-.1c0 0 .2-.14-.35-.66c0 0-.47-.4-1.21-2.19c-.08-.15-.21-.23-.35-.23z"/></g><linearGradient id="IconifyId-1790f3e76ee-b1ae7d-4759" x1="115" x2="115" y1="58.25" y2="63.375" gradientUnits="userSpaceOnUse"><stop stop-color="#43A047" offset=".006"/><stop stop-color="#3E9842" offset=".349"/><stop stop-color="#328336" offset=".87"/><stop stop-color="#2E7D32" offset="1"/></linearGradient><path d="M122.52 63.8s-1.36-.89-2.07-2.17c.74.09 1.94.15 1.6-.55c0 0-1.5-1.03-2.04-2.46c.23.02.47-.01.69-.15c0 0 .31-.22-.54-1.03c0 0-.73-.62-1.89-3.4a.562.562 0 0 0-1.04-.03c-.51 1.09-1.31 2.65-2.13 3.62c0 0-1.08 1.28.69.81c-.17.23-.61.8-1.08 1.34l-.05-.05s-.73-.62-1.89-3.4a.562.562 0 0 0-1.04-.03c-.51 1.09-1.31 2.65-2.13 3.62c0 0-1.08 1.28.69.81c-.31.42-1.49 1.98-2.23 2.38c0 0-.85.93 1.53.8c-.56.66-1.41 1.6-2 1.91c0 0-1.11 1.14 2.44.78c0 0 .19 1.14 2.44.13c0 0 1.96 1.04 2.18-.16c0 0 2.91.55 2.37-.49c0 0-1.07-.7-1.8-1.74c.1-.01.2-.01.31-.03c0 0 .19 1.14 2.44.13c0 0 1.96 1.04 2.18-.16c-.01.01 2.91.57 2.37-.48zm-7.65-2.16c.07 0 .13 0 .21-.01c-.04.05-.08.09-.12.14c-.03-.04-.06-.09-.09-.13z" fill="url(#IconifyId-1790f3e76ee-b1ae7d-4759)"/><path d="M117.72 54.83c.74 1.7 1.31 2.54 1.62 2.93l-.56-.06l.47 1.22c.3.77.82 1.44 1.3 1.93l-1.57-.2l.77 1.38c.35.63.83 1.17 1.27 1.59c-.39-.04-.71-.1-.72-.1l-.8-.13l-.13.7c-.32-.01-.84-.22-1.03-.33l-.35-.18l-.36.16c-.64.29-1.01.35-1.21.35c-.06 0-.1-.01-.13-.01l-.1-.61l-.75.08l-.19.02l-.1.01l-1.39.11l.81 1.14c.3.42.64.79.95 1.09c-.39-.04-.71-.1-.72-.1l-.8-.13l-.13.7c-.32-.01-.84-.22-1.03-.33l-.35-.18l-.36.16c-.64.29-1.01.35-1.21.35c-.06 0-.1-.01-.13-.01l-.1-.61l-.75.08c-.42.04-.79.06-1.1.07c.4-.36.85-.85 1.36-1.45l1.18-1.41l-1.84.1c-.08 0-.16.01-.23.01c.61-.6 1.23-1.39 1.62-1.92l1.35-1.83l-1.59.42c.58-.83 1.12-1.83 1.54-2.69c.99 2.26 1.67 3.01 1.87 3.2l.04.04l.5.48l-1.17.06l.76 1.19c.03.04.05.09.08.13l.59.86l.68-.79l.04-.04l.09-.1l1.18-1.41l-1.84.1h-.19l.46-.51c.53-.6 1-1.22 1.13-1.4l1.35-1.83l-1.59.42a28.4 28.4 0 0 0 1.51-2.72m.01-1.14c-.2 0-.41.11-.51.33c-.51 1.09-1.31 2.65-2.13 3.62c0 0-.77.92.06.92c.15 0 .36-.03.63-.1c-.17.23-.61.8-1.08 1.34l-.05-.05s-.73-.62-1.89-3.4a.564.564 0 0 0-1.04-.03c-.51 1.09-1.31 2.65-2.13 3.62c0 0-.77.92.06.92c.15 0 .36-.03.63-.1c-.31.42-1.49 1.98-2.23 2.38c0 0-.74.81 1.11.81c.13 0 .26 0 .42-.01c-.56.66-1.41 1.6-2 1.91c0 0-.83.85 1.24.85c.32 0 .72-.02 1.2-.07c0 0 .09.55.9.55c.36 0 .85-.11 1.54-.42c0 0 .79.42 1.42.42c.37 0 .68-.14.76-.58c0 0 .77.15 1.45.15c.64 0 1.19-.13.93-.64c0 0-1.07-.7-1.8-1.74c.1-.01.2-.01.31-.03c0 0 .09.55.9.55c.36 0 .85-.11 1.54-.42c0 0 .79.42 1.42.42c.37 0 .68-.14.76-.58c0 0 .77.15 1.45.15c.64 0 1.19-.13.93-.64c0 0-1.36-.89-2.07-2.17c.23.03.51.05.76.05c.57 0 1.07-.12.83-.61c0 0-1.5-1.03-2.04-2.46c.04 0 .09.01.13.01c.19 0 .38-.04.56-.16c0 0 .31-.22-.54-1.03c0 0-.73-.62-1.89-3.4a.597.597 0 0 0-.54-.36zm-2.77 8.08c-.03-.04-.06-.09-.09-.14c.07 0 .13 0 .21-.01c-.04.06-.08.11-.12.15z" fill="#424242" opacity=".2"/><radialGradient id="IconifyId-1790f3e76ee-b1ae7d-4760" cx="63" cy="65" r="78.387" gradientUnits="userSpaceOnUse"><stop stop-color="#8BC34A" offset="0"/><stop stop-color="#84BC47" offset=".247"/><stop stop-color="#72AA3D" offset=".598"/><stop stop-color="#689F38" offset=".753"/><stop stop-color="#689F38" offset="1"/></radialGradient><path fill="url(#IconifyId-1790f3e76ee-b1ae7d-4760)" d="M4 64h120v60H4z"/><path d="M121 67v54H7V67h114m3-3H4v60h120V64z" fill="#424242" opacity=".2"/><path d="M99.91 108h-2.3a2.3 2.3 0 0 1-2.3-2.3V94.19h6.9v11.51a2.3 2.3 0 0 1-2.3 2.3z" fill="#795548"/><path d="M101.06 95.34v10.36c0 .63-.52 1.15-1.15 1.15h-2.3c-.63 0-1.15-.52-1.15-1.15V95.34h4.6m1.15-1.15h-6.9v11.51a2.3 2.3 0 0 0 2.3 2.3h2.3a2.3 2.3 0 0 0 2.3-2.3V94.19z" fill="#424242" opacity=".2"/><radialGradient id="IconifyId-1790f3e76ee-b1ae7d-4761" cx="98.625" cy="49.375" r="44.877" gradientUnits="userSpaceOnUse"><stop stop-color="#43A047" offset=".006"/><stop stop-color="#3E9842" offset=".272"/><stop stop-color="#328336" offset=".677"/><stop stop-color="#2E7D32" offset=".778"/><stop stop-color="#2E7D32" offset="1"/></radialGradient><path d="M120.32 93.94s-6.18-4.02-9.39-9.81c3.34.42 8.77.67 7.23-2.5c0 0-6.77-4.66-9.25-11.11c1.03.11 2.12-.04 3.13-.69c0 0 1.42-.98-2.45-4.64c0 0-3.32-2.8-8.55-15.39c-.88-2.11-3.72-2.2-4.69-.14c-2.31 4.91-5.95 11.97-9.65 16.39c0 0-4.9 5.79 3.14 3.68c-1.39 1.88-6.75 8.95-10.09 10.77c0 0-3.83 4.19 6.92 3.62c-2.52 3.01-6.36 7.25-9.04 8.63c0 0-5.01 5.17 11.03 3.55c0 0 .86 5.17 11.03.59c0 0 8.88 4.73 9.88-.74c.01.01 13.19 2.52 10.75-2.21z" fill="url(#IconifyId-1790f3e76ee-b1ae7d-4761)"/><path d="M98.66 50.17c.14 0 .4.05.54.4c5.05 12.17 8.45 15.57 9.05 16.1c.88.83 1.38 1.44 1.67 1.86c-.13.02-.26.02-.4.02c-.13 0-.27-.01-.4-.02l-3.25-.34l1.17 3.05c2.01 5.22 6.47 9.28 8.69 11.06c-.33.04-.77.07-1.34.07c-.92 0-2-.08-3.21-.23l-3.91-.5l1.91 3.45c2.53 4.56 6.67 8.04 8.76 9.61c-.42.07-1 .12-1.81.12c-2.83 0-6.15-.62-6.18-.63l-1.98-.38l-.36 1.98c-.09.51-.18 1-1.48 1c-1.93 0-4.62-1.2-5.49-1.66l-.87-.46l-.89.4c-3.15 1.42-5.09 1.72-6.16 1.72c-1.62 0-2-.64-2.08-.85l-.11-1.83l-2.07.21c-2 .2-3.76.31-5.23.31c-2.3 0-3.47-.25-4.03-.45c2.29-1.4 5.31-4.35 9.01-8.76l2.95-3.52l-4.59.24c-.63.03-1.23.05-1.77.05c-1.84 0-2.84-.19-3.37-.35c2.71-1.82 6.07-5.78 8.34-8.69c1.09-1.39 1.97-2.93 2.62-4.58a.772.772 0 0 0-.82-1.05l-2.22.29c-.73.19-1.27.29-1.68.35c.17-.28.38-.57.58-.81c3.8-4.54 7.49-11.65 9.92-16.82c.11-.25.27-.36.49-.36m0-2c-.92 0-1.83.49-2.3 1.5c-2.31 4.91-5.95 11.97-9.65 16.39c0 0-3.5 4.14.28 4.14c.69 0 1.62-.14 2.86-.46c-1.39 1.88-6.75 8.95-10.09 10.77c0 0-3.36 3.67 5.04 3.67c.57 0 1.2-.02 1.88-.05c-2.52 3.01-6.36 7.25-9.04 8.63c0 0-3.74 3.86 5.59 3.86c1.47 0 3.26-.1 5.44-.32c0 0 .41 2.48 4.05 2.48c1.61 0 3.86-.49 6.98-1.89c0 0 3.57 1.9 6.43 1.9c1.66 0 3.08-.63 3.45-2.64c0 0 3.5.67 6.55.67c2.88 0 5.37-.59 4.19-2.88c0 0-6.18-4.02-9.39-9.81c1.04.13 2.29.25 3.46.25c2.59 0 4.83-.56 3.76-2.74c0 0-6.77-4.66-9.25-11.11c.2.02.4.03.61.03c.85 0 1.71-.2 2.52-.72c0 0 1.42-.98-2.45-4.64c0 0-3.32-2.8-8.55-15.39c-.43-1.09-1.4-1.64-2.37-1.64z" fill="#424242" opacity=".2"/><radialGradient id="IconifyId-1790f3e76ee-b1ae7d-4762" cx="34.667" cy="58.667" r="65.769" gradientUnits="userSpaceOnUse"><stop stop-color="#039BE5" offset="0"/><stop stop-color="#039BE5" offset=".401"/><stop stop-color="#0A87D8" offset=".649"/><stop stop-color="#1565C0" offset="1"/></radialGradient><path d="M58.38 100.88c14.28-8.39 23.62-16.5-9.25-25C23.45 69.24 22.53 64 22.53 64h-9.94c-.59 6.88 11.6 11.73 23.15 16.44C47.25 85.12 57 89 32.51 97.62C14.65 103.92 6.4 113.12 8.27 124h68c-25-5.17-30.02-16-17.89-23.12z" fill="url(#IconifyId-1790f3e76ee-b1ae7d-4762)"/><path d="M21.36 66c1.92 2.55 8.1 6.85 27.27 11.81c17.47 4.52 20.52 8.37 20.79 10.27c.52 3.69-8.29 8.86-12.05 11.07c-7.19 4.22-7.59 8.92-7.19 11.34c.48 2.88 2.86 7.53 12.31 11.51H10.05c-.76-11.53 12-18.57 23.13-22.49c11.67-4.11 16.46-7.34 16.55-11.15c.1-4.34-5.71-6.71-13.06-9.7l-.18-.07l-.51-.21C27.38 74.87 16.9 70.61 14.91 66h6.45m1.17-2h-9.94c-.59 6.88 11.6 11.73 23.15 16.44C47.25 85.12 57 89 32.51 97.62C14.65 103.92 6.4 113.12 8.27 124h68c-25-5.17-30.02-16-17.9-23.12c14.28-8.39 23.62-16.5-9.25-25C23.45 69.24 22.53 64 22.53 64z" fill="#424242" opacity=".2"/><path d="M19.64 80.8h-1.17c-.65 0-1.17-.52-1.17-1.17v-5.84h3.5v5.84c.01.65-.51 1.17-1.16 1.17z" fill="#795548"/><path d="M20.23 74.38v5.26c0 .32-.26.58-.58.58h-1.17a.58.58 0 0 1-.58-.58v-5.26h2.33m.58-.59h-3.5v5.84c0 .65.52 1.17 1.17 1.17h1.17c.65 0 1.17-.52 1.17-1.17v-5.84h-.01z" fill="#424242" opacity=".2"/><radialGradient id="IconifyId-1790f3e76ee-b1ae7d-4763" cx="19" cy="51.25" r="26.808" gradientUnits="userSpaceOnUse"><stop stop-color="#43A047" offset=".006"/><stop stop-color="#3E9842" offset=".272"/><stop stop-color="#328336" offset=".677"/><stop stop-color="#2E7D32" offset=".778"/><stop stop-color="#2E7D32" offset="1"/></radialGradient><path d="M30 73.66s-3.13-2.04-4.76-4.98c1.7.22 4.45.34 3.67-1.27c0 0-3.44-2.36-4.69-5.64c.52.06 1.08-.02 1.59-.35c0 0 .72-.5-1.24-2.35c0 0-1.68-1.42-4.34-7.81c-.44-1.07-1.89-1.12-2.38-.07c-1.17 2.49-3.02 6.08-4.9 8.32c0 0-2.48 2.94 1.59 1.87c-.71.96-3.43 4.54-5.12 5.47c0 0-1.94 2.13 3.51 1.84c-1.28 1.53-3.23 3.68-4.59 4.38c0 0-2.54 2.62 5.6 1.8c0 0 .44 2.62 5.6.3c0 0 4.51 2.4 5.02-.37c-.01-.01 6.68 1.26 5.44-1.14z" fill="url(#IconifyId-1790f3e76ee-b1ae7d-4763)"/><path d="M19.01 51.56c.11 0 .15.1.17.13c2.56 6.17 4.3 7.93 4.62 8.21c.33.32.56.57.71.76c-.06 0-.11 0-.17-.01l-1.84-.19l.66 1.72c.97 2.51 3.04 4.5 4.23 5.48c-.11.01-.24.01-.39.01c-.46 0-1-.04-1.61-.12l-2.21-.28l1.08 1.95c1.21 2.18 3.13 3.87 4.25 4.74c-.18.03-.38.04-.63.04c-1.42 0-3.1-.32-3.12-.32l-1.12-.21l-.21 1.12c-.04.24-.07.41-.63.41c-.95 0-2.3-.6-2.73-.83l-.49-.26l-.51.23c-1.58.71-2.55.86-3.08.86c-.58 0-.87-.17-.94-.34l-.04-1.03l-1.19.12c-1.01.1-1.9.15-2.65.15c-.9 0-1.45-.08-1.77-.15c1.14-.76 2.62-2.22 4.39-4.33l1.67-1.99l-2.59.14c-.33.02-.62.03-.89.03c-.7 0-1.15-.05-1.44-.11c1.77-1.29 3.98-4.15 4.91-5.42l1.91-2.58l-3.1.82c-.23.06-.42.1-.58.13c.05-.06.09-.13.14-.18c1.94-2.31 3.82-5.93 5.05-8.56c.03-.1.07-.14.14-.14m0-1.13c-.47 0-.93.25-1.17.76c-1.17 2.49-3.02 6.08-4.9 8.32c0 0-1.78 2.1.14 2.1c.35 0 .82-.07 1.45-.24c-.71.96-3.43 4.54-5.12 5.47c0 0-1.7 1.86 2.56 1.86c.29 0 .61-.01.95-.03c-1.28 1.53-3.23 3.68-4.59 4.38c0 0-1.9 1.96 2.84 1.96c.74 0 1.65-.05 2.76-.16c0 0 .21 1.26 2.06 1.26c.82 0 1.96-.25 3.54-.96c0 0 1.81.96 3.27.96c.84 0 1.56-.32 1.75-1.34c0 0 1.77.34 3.33.34c1.46 0 2.72-.3 2.13-1.46c0 0-3.13-2.04-4.76-4.98c.53.07 1.16.13 1.76.13c1.31 0 2.45-.29 1.91-1.39c0 0-3.44-2.36-4.69-5.64c.1.01.2.02.31.02c.43 0 .87-.1 1.28-.37c0 0 .72-.5-1.24-2.35c0 0-1.68-1.42-4.34-7.81c-.25-.55-.74-.83-1.23-.83z" fill="#424242" opacity=".2"/><rect x="0" y="0" width="128" height="128" fill="rgba(0, 0, 0, 0)" /></svg>